<mxfile host="app.diagrams.net" modified="2020-08-30T15:33:26.701Z" agent="5.0 (Windows NT 6.1; Win64; x64) AppleWebKit/537.36 (KHTML, like Gecko) Chrome/84.0.4147.135 Safari/537.36" etag="-q3TMyn6PuT1hWubLeIi" version="13.6.5" type="github">
  <diagram id="UO4wUqYZAeioH70eUmsq" name="Page-1">
    <mxGraphModel dx="1038" dy="516" grid="1" gridSize="10" guides="1" tooltips="1" connect="1" arrows="1" fold="1" page="1" pageScale="1" pageWidth="827" pageHeight="1169" math="0" shadow="0">
      <root>
        <mxCell id="0" />
        <mxCell id="1" parent="0" />
        <mxCell id="8IeWuOguuYuEFAIZMGbB-9" style="edgeStyle=orthogonalEdgeStyle;rounded=0;orthogonalLoop=1;jettySize=auto;html=1;exitX=0.5;exitY=1;exitDx=0;exitDy=0;entryX=0.5;entryY=0;entryDx=0;entryDy=0;" edge="1" parent="1" source="8IeWuOguuYuEFAIZMGbB-1" target="8IeWuOguuYuEFAIZMGbB-5">
          <mxGeometry relative="1" as="geometry" />
        </mxCell>
        <mxCell id="8IeWuOguuYuEFAIZMGbB-1" value="auto R/C" style="rounded=1;whiteSpace=wrap;html=1;" vertex="1" parent="1">
          <mxGeometry x="160" y="80" width="80" height="40" as="geometry" />
        </mxCell>
        <mxCell id="8IeWuOguuYuEFAIZMGbB-8" style="edgeStyle=orthogonalEdgeStyle;rounded=0;orthogonalLoop=1;jettySize=auto;html=1;exitX=1;exitY=0.5;exitDx=0;exitDy=0;entryX=1;entryY=0.5;entryDx=0;entryDy=0;" edge="1" parent="1" source="8IeWuOguuYuEFAIZMGbB-2" target="8IeWuOguuYuEFAIZMGbB-5">
          <mxGeometry relative="1" as="geometry">
            <Array as="points">
              <mxPoint x="280" y="260" />
              <mxPoint x="280" y="180" />
            </Array>
          </mxGeometry>
        </mxCell>
        <mxCell id="8IeWuOguuYuEFAIZMGbB-12" style="edgeStyle=orthogonalEdgeStyle;rounded=0;orthogonalLoop=1;jettySize=auto;html=1;exitX=0.5;exitY=1;exitDx=0;exitDy=0;entryX=0.5;entryY=0;entryDx=0;entryDy=0;" edge="1" parent="1" source="8IeWuOguuYuEFAIZMGbB-2" target="8IeWuOguuYuEFAIZMGbB-11">
          <mxGeometry relative="1" as="geometry" />
        </mxCell>
        <mxCell id="8IeWuOguuYuEFAIZMGbB-2" value="check if R/C excel&lt;br&gt;period&amp;nbsp; (by python)" style="rhombus;whiteSpace=wrap;html=1;" vertex="1" parent="1">
          <mxGeometry x="140" y="240" width="120" height="40" as="geometry" />
        </mxCell>
        <mxCell id="8IeWuOguuYuEFAIZMGbB-7" style="edgeStyle=orthogonalEdgeStyle;rounded=0;orthogonalLoop=1;jettySize=auto;html=1;exitX=0.5;exitY=1;exitDx=0;exitDy=0;entryX=0.5;entryY=0;entryDx=0;entryDy=0;" edge="1" parent="1" source="8IeWuOguuYuEFAIZMGbB-5" target="8IeWuOguuYuEFAIZMGbB-2">
          <mxGeometry relative="1" as="geometry" />
        </mxCell>
        <mxCell id="8IeWuOguuYuEFAIZMGbB-5" value="需中控台定時&lt;br&gt;log-in 公用電腦" style="rounded=0;whiteSpace=wrap;html=1;" vertex="1" parent="1">
          <mxGeometry x="140" y="160" width="120" height="40" as="geometry" />
        </mxCell>
        <mxCell id="8IeWuOguuYuEFAIZMGbB-11" value="trigger RPA issue R/C" style="rounded=0;whiteSpace=wrap;html=1;" vertex="1" parent="1">
          <mxGeometry x="140" y="320" width="120" height="40" as="geometry" />
        </mxCell>
      </root>
    </mxGraphModel>
  </diagram>
</mxfile>
